<svg width="30" height="30" viewBox="0 0 30 30" fill="none" xmlns="http://www.w3.org/2000/svg">
<g clip-path="url(#clip0_2825_303)">
<path d="M25.75 15.0575V26.75C25.75 27.0815 25.6183 27.3995 25.3839 27.6339C25.1495 27.8683 24.8315 28 24.5 28H4.5C4.16848 28 3.85054 27.8683 3.61612 27.6339C3.3817 27.3995 3.25001 27.0815 3.25001 26.75V15.0575C2.4429 14.145 1.9982 12.9683 2.00001 11.75V4.25C2.00001 3.91848 2.1317 3.60054 2.36612 3.36612C2.60054 3.1317 2.91848 3 3.25001 3H25.75C26.0815 3 26.3995 3.1317 26.6339 3.36612C26.8683 3.60054 27 3.91848 27 4.25V11.75C27.0012 12.9682 26.5566 14.1446 25.75 15.0575ZM23.25 16.5925C22.356 16.8217 21.4162 16.7997 20.5339 16.5289C19.6517 16.258 18.8613 15.7489 18.25 15.0575C17.7813 15.5901 17.2043 16.0166 16.5577 16.3084C15.911 16.6003 15.2095 16.7508 14.5 16.75C13.7905 16.7508 13.089 16.6003 12.4424 16.3084C11.7957 16.0166 11.2187 15.5901 10.75 15.0575C10.1404 15.7512 9.35017 16.262 8.46736 16.533C7.58455 16.804 6.64383 16.8246 5.75 16.5925V25.5H23.25V16.5925ZM17 11.75C17 11.4185 17.1317 11.1005 17.3661 10.8661C17.6005 10.6317 17.9185 10.5 18.25 10.5C18.5815 10.5 18.8995 10.6317 19.1339 10.8661C19.3683 11.1005 19.5 11.4185 19.5 11.75C19.5 12.413 19.7634 13.0489 20.2322 13.5178C20.7011 13.9866 21.337 14.25 22 14.25C22.663 14.25 23.2989 13.9866 23.7678 13.5178C24.2366 13.0489 24.5 12.413 24.5 11.75V5.5H4.5V11.75C4.5 12.413 4.7634 13.0489 5.23224 13.5178C5.70108 13.9866 6.33696 14.25 7 14.25C7.66304 14.25 8.29893 13.9866 8.76777 13.5178C9.23661 13.0489 9.5 12.413 9.5 11.75C9.5 11.4185 9.6317 11.1005 9.86612 10.8661C10.1005 10.6317 10.4185 10.5 10.75 10.5C11.0815 10.5 11.3995 10.6317 11.6339 10.8661C11.8683 11.1005 12 11.4185 12 11.75C12 12.413 12.2634 13.0489 12.7322 13.5178C13.2011 13.9866 13.837 14.25 14.5 14.25C15.163 14.25 15.7989 13.9866 16.2678 13.5178C16.7366 13.0489 17 12.413 17 11.75Z" fill="url(#paint0_linear_2825_303)"/>
</g>
<defs>
<linearGradient id="paint0_linear_2825_303" x1="6.5" y1="-1" x2="24" y2="32" gradientUnits="userSpaceOnUse">
<stop stop-color="#0085FF"/>
<stop offset="1" stop-color="#E6E6FF"/>
</linearGradient>
<clipPath id="clip0_2825_303">
<rect width="30" height="30" fill="white"/>
</clipPath>
</defs>
</svg>
